<?xml version="1.0" encoding="utf-8"?>
<!-- Generator: Adobe Illustrator 16.0.0, SVG Export Plug-In . SVG Version: 6.00 Build 0)  -->
<!DOCTYPE svg PUBLIC "-//W3C//DTD SVG 1.1//EN" "http://www.w3.org/Graphics/SVG/1.1/DTD/svg11.dtd">
<svg version="1.1" id="Layer_1" xmlns="http://www.w3.org/2000/svg" xmlns:xlink="http://www.w3.org/1999/xlink" x="0px" y="0px"
	 width="100px" height="100px" viewBox="0 0 100 100" enable-background="new 0 0 100 100" xml:space="preserve">
<path fill="#5EBF88" d="M53.12,61.478l-2.616-5.817c2.509-1.815,4.658-4.091,6.296-6.696l5.971,2.255
	c1.131,0.441,2.424-0.139,2.834-1.275l2.211-5.798c0.198-0.536,0.19-1.144-0.069-1.689c-0.218-0.526-0.668-0.944-1.222-1.144
	l-5.979-2.257c0.476-3.074,0.382-6.189-0.276-9.226l5.81-2.605c0.543-0.25,0.938-0.687,1.179-1.243
	c0.198-0.535,0.189-1.144-0.071-1.688l-2.533-5.636c-0.483-1.109-1.798-1.603-2.912-1.098l-5.805,2.606
	c-1.813-2.492-4.117-4.635-6.705-6.306l2.272-5.961c0.405-1.145-0.161-2.422-1.294-2.85L44.44,2.86
	c-0.553-0.207-1.164-0.19-1.687,0.054c-0.546,0.243-0.945,0.678-1.165,1.233l-2.253,5.959c-3.051-0.469-6.185-0.374-9.193,0.281
	l-2.618-5.815c-0.24-0.527-0.692-0.946-1.225-1.16c-0.553-0.204-1.16-0.193-1.688,0.053l-5.629,2.543
	c-1.114,0.496-1.619,1.803-1.111,2.922l2.619,5.808c-2.489,1.837-4.637,4.108-6.315,6.719l-5.954-2.27
	c-0.542-0.205-1.145-0.19-1.688,0.058c-0.525,0.24-0.942,0.677-1.146,1.228l-2.189,5.781c-0.428,1.135,0.142,2.407,1.276,2.852
	l5.953,2.258c-0.47,3.055-0.376,6.188,0.277,9.208l-5.801,2.621c-0.531,0.238-0.951,0.673-1.147,1.228
	c-0.218,0.549-0.192,1.161,0.047,1.688l2.536,5.658c0.237,0.504,0.678,0.938,1.222,1.146c0.553,0.197,1.163,0.183,1.689-0.073
	l5.807-2.607c1.83,2.491,4.112,4.645,6.704,6.324l-2.254,5.941c-0.427,1.135,0.143,2.43,1.274,2.875l5.772,2.175
	c0.263,0.096,0.517,0.129,0.786,0.129c0.321,0,0.617-0.042,0.901-0.193c0.546-0.225,0.965-0.677,1.162-1.223l2.255-5.949
	c3.054,0.474,6.187,0.381,9.197-0.281l2.618,5.812c0.236,0.515,0.688,0.951,1.224,1.15c0.552,0.199,1.16,0.187,1.687-0.071
	l5.627-2.537C53.126,63.898,53.609,62.589,53.12,61.478z M49.467,40.513c-2.174,5.779-7.796,9.667-13.974,9.667
	c-1.812,0-3.595-0.326-5.292-0.979c-3.737-1.412-6.696-4.207-8.336-7.844c-1.638-3.649-1.751-7.72-0.339-11.448
	c2.193-5.778,7.794-9.668,13.975-9.668c1.812,0,3.593,0.331,5.292,0.977c3.738,1.416,6.696,4.196,8.334,7.846
	C50.769,32.699,50.88,36.767,49.467,40.513z M98.482,70.645c-0.391-0.446-0.945-0.677-1.521-0.729l-4.173-0.181
	c-0.383-1.924-1.055-3.844-2.051-5.576l3.072-2.813c0.915-0.828,0.949-2.232,0.16-3.109l-3.066-3.341
	c-0.383-0.418-0.943-0.679-1.517-0.697c-0.573-0.039-1.143,0.186-1.589,0.578l-3.073,2.816c-1.628-1.122-3.478-1.972-5.378-2.525
	l0.179-4.161c0.038-1.221-0.911-2.236-2.127-2.298l-4.492-0.196c-1.214-0.046-2.246,0.893-2.28,2.112l-0.181,4.164
	c-1.962,0.379-3.841,1.06-5.604,2.049l-2.815-3.072c-0.385-0.447-0.936-0.684-1.512-0.729c-0.58-0.009-1.185,0.187-1.591,0.61
	l-3.3,3.026c-0.916,0.832-0.984,2.228-0.152,3.112l2.81,3.075c-1.119,1.672-1.969,3.487-2.517,5.386l-4.147-0.147
	c-1.212-0.067-2.246,0.878-2.294,2.094l-0.191,4.501c-0.033,0.575,0.186,1.141,0.574,1.591c0.404,0.442,0.941,0.68,1.533,0.692
	l4.146,0.178c0.38,1.967,1.09,3.856,2.045,5.618l-3.071,2.817c-0.409,0.383-0.679,0.937-0.691,1.519
	c-0.052,0.609,0.185,1.174,0.572,1.585l3.026,3.342c0.422,0.411,0.941,0.677,1.557,0.692c0.569,0.015,1.141-0.186,1.585-0.573
	l3.037-2.816c1.669,1.125,3.472,1.966,5.415,2.526l-0.18,4.147c-0.072,1.216,0.911,2.245,2.089,2.312l4.49,0.194
	c0.062,0.001,0.075,0.001,0.098,0.001c0.559,0,1.098-0.214,1.495-0.587c0.446-0.408,0.712-0.969,0.725-1.54l0.184-4.152
	c1.961-0.375,3.846-1.09,5.564-2.046l2.814,3.075c0.425,0.407,0.946,0.679,1.557,0.688c0.576,0.053,1.14-0.187,1.588-0.57
	l3.296-3.033c0.91-0.831,0.95-2.23,0.12-3.106l-2.813-3.079c1.122-1.672,1.967-3.482,2.521-5.423l4.164,0.18
	c1.194,0.067,2.226-0.871,2.297-2.093l0.188-4.496C99.068,71.66,98.871,71.055,98.482,70.645z M73.646,83.692
	c-5.643-0.254-10.055-5.06-9.834-10.712c0.256-5.532,4.761-9.857,10.287-9.857c0.121,0,0.285,0.001,0.414,0.005
	c5.687,0.229,10.093,5.064,9.831,10.721C84.13,79.505,79.358,83.92,73.646,83.692z"/>
</svg>
