<?xml version="1.0" encoding="utf-8"?>
<!-- Generator: Adobe Illustrator 16.0.0, SVG Export Plug-In . SVG Version: 6.00 Build 0)  -->
<!DOCTYPE svg PUBLIC "-//W3C//DTD SVG 1.1//EN" "http://www.w3.org/Graphics/SVG/1.1/DTD/svg11.dtd">
<svg version="1.1" id="Layer_1" xmlns="http://www.w3.org/2000/svg" xmlns:xlink="http://www.w3.org/1999/xlink" x="0px" y="0px"
	 width="100px" height="100px" viewBox="0 0 100 100" enable-background="new 0 0 100 100" xml:space="preserve">
<g>
	<g>
		<path fill="#5EBF88" d="M72.803,70.357c1.701,0.048,2.907,1.381,4.032,2.52c1.078,1.092,2.2,2.125,3.598,2.782
			c1.963,0.923,3.681-2.016,1.708-2.946c-2.303-1.082-3.769-3.187-5.729-4.533c0.352-0.395,0.678-0.846,0.966-1.373
			c1.049-1.928-1.871-3.648-2.922-1.723c-0.543,1.001-1.37,1.608-2.354,1.982c-0.009,0.003-0.017,0.006-0.025,0.01
			c-2.663,0.994-6.468,0.244-8.957,0.604c-0.011,0.001-0.022,0.003-0.034,0.005c1.772-1.1,3.728-1.979,5.41-2.78
			c4.401-2.087,8.714-4.958,10.114-9.926c0.595-2.121-2.667-3.018-3.262-0.906c-0.66,2.337-2.164,4.022-4.022,5.363
			c0.053-1.957-0.1-3.921,1.367-5.487c1.497-1.595-0.891-4.012-2.392-2.412c-1.189,1.273-1.961,2.71-2.229,4.444
			c-0.264,1.704,0.434,3.735-0.44,5.284c-0.078,0.135-0.13,0.272-0.168,0.406c-1.528,0.746-3.077,1.417-4.465,2.128
			c-1.157,0.592-2.296,1.306-3.351,2.129c1.744-5.392,3.328-11.164,8.024-14.497c4.856-3.45,11.244-3.467,15.594-7.875
			c1.54-1.562-0.851-3.973-2.392-2.412c-1.544,1.568-3.422,2.595-5.418,3.437c0.746-1.4,1.11-2.988,1.388-4.625
			c0.364-2.15-2.896-3.071-3.261-0.906c-0.382,2.257-0.761,4.334-2.789,5.664c-4.185,2.743-8.024,5.581-10.494,10.084
			c-0.884,1.606-1.568,3.314-2.188,5.038c-0.449,1.252-1.776,3.676-1.65,4.986c-0.101-1.035-0.244-2.048-0.336-3.044
			c-0.001-0.044-0.007-0.091-0.012-0.136c-0.172-1.973-0.118-3.896,0.931-5.841c2.771-5.143,8.449-8,8.571-14.49
			c0.041-2.2-3.34-2.195-3.382,0c-0.069,3.73-2.743,6.377-5.228,9.119c-0.089-0.368-0.206-0.731-0.372-1.088
			c-0.556-1.206-1.384-2.214-1.778-3.498c-0.422-1.376-0.218-2.982-0.128-4.392c0.139-2.196-3.239-2.182-3.389,0
			c-0.149,2.467-0.082,4.7,0.898,6.993c0.428,1.016,1.175,1.788,1.507,2.866c0.315,1.021-0.019,2.262-0.391,3.369
			c-1.049-0.787-2.329-1.359-3.676-1.708c-4.825-1.253-9.879-1.733-12.228-6.88c-0.911-1.995-3.826-0.262-2.92,1.721
			c0.378,0.83,0.849,1.596,1.391,2.299c-0.263-0.014-0.527-0.03-0.791-0.044c-1.924-0.111-3.093-0.567-3.733-2.515
			c-0.886-2.696-0.711-5.346-2.823-7.513c-1.529-1.571-3.918,0.841-2.391,2.411c1.238,1.271,1.358,3.131,1.665,4.803
			c0.312,1.716,0.98,3.265,2.165,4.544c0.972,1.045,2.554,1.456,3.914,1.584c2.128,0.201,4.272,0.278,6.407,0.396
			c0.484,0.256,0.984,0.491,1.495,0.696c1.816,0.726,3.668,1.156,5.586,1.506c1.583,0.289,4.575,0.878,5.075,2.74
			c-1.98-0.159-4.258,0.746-6.046,1.461c-1.39,0.555-2.843,0.868-4.306,0.966c-0.16-0.116-0.344-0.213-0.569-0.271
			c-1.24-0.333-1.988-1.329-2.808-2.258c-0.987-1.118-2.109-2.047-3.333-2.886c-1.216-0.834-2.629-1.392-4.021-1.846
			c-1.369-0.446-3.121-0.695-4.045-1.935c-1.294-1.731-4.233-0.037-2.92,1.722c2.066,2.766,5.201,2.897,8.103,4.316
			c1.005,0.493,1.85,1.211,2.647,1.988c-0.592-0.243-1.172-0.519-1.732-0.834c-1.908-1.066-3.613,1.877-1.707,2.946
			c3.06,1.712,6.384,2.538,9.884,2.488c1.715-0.024,3.44-0.38,5.073-0.884c1.292-0.398,4.805-2.603,6.067-1.275
			c0.051,0.463,0.107,0.929,0.17,1.398c0.379,2.836,0.356,5.628-0.097,8.413c-1.954-2.124-5.028-3.122-7.839-3.848
			c-4.488-1.16-9.495-1.561-13.267-4.542c-1.694-1.343-4.107,1.053-2.391,2.409c1.407,1.113,2.908,1.954,4.482,2.618
			c-1.523,0.718-2.908,1.177-4.813,0.804c-2.131-0.419-3.039,2.867-0.9,3.287c1.853,0.364,3.6,0.329,5.428-0.161
			c0.961-0.257,1.875-0.76,2.715-1.279c1.127-0.697,2.161-0.711,3.446-0.645c0.216,0.009,0.404-0.021,0.576-0.073
			c3.404,0.751,9.853,1.316,10.981,5.33c0.072,0.271,0.201,0.493,0.352,0.668l-0.842,22.182h8.032l-0.847-23.299
			c0-0.136-0.011-0.265-0.026-0.386c0.117-0.123,0.227-0.265,0.314-0.448c0.741-1.521,1.776-2.458,2.988-3.043
			c2.23,0.616,3.403,2.105,5.029,3.866c1.394,1.507,3.281,2.523,5.252,2.999c2.12,0.515,3.018-2.775,0.899-3.284
			c-2.559-0.621-3.908-2.346-5.581-4.23c-0.104-0.12-0.224-0.228-0.337-0.341c2.06-0.077,4.189-0.038,6.091-0.482
			C72.663,70.339,72.729,70.354,72.803,70.357z"/>
		<path fill="#5EBF88" d="M23.09,58.137c-4.54,0-4.54,7.1,0,7.1C27.631,65.235,27.631,58.137,23.09,58.137z"/>
		<path fill="#5EBF88" d="M20.275,50.329c4.54,0,4.54-7.098,0-7.098C15.734,43.231,15.734,50.329,20.275,50.329z"/>
		<path fill="#5EBF88" d="M16.05,51.747c-4.54,0-4.54,7.1,0,7.1S20.59,51.747,16.05,51.747z"/>
		<path fill="#5EBF88" d="M36.469,35.779c-4.54,0-4.54,7.097,0,7.097S41.009,35.779,36.469,35.779z"/>
		<path fill="#5EBF88" d="M22.034,40.037c4.541,0,4.541-7.098,0-7.098C17.495,32.939,17.495,40.037,22.034,40.037z"/>
		<path fill="#5EBF88" d="M30.132,34.359c4.541,0,4.541-7.099,0-7.099C25.592,27.261,25.591,34.359,30.132,34.359z"/>
		<path fill="#5EBF88" d="M41.748,27.616c-4.539,0-4.539,7.099,0,7.099C46.291,34.714,46.291,27.616,41.748,27.616z"/>
		<path fill="#5EBF88" d="M45.27,47.845c4.54,0,4.54-7.099,0-7.099C40.729,40.747,40.729,47.845,45.27,47.845z"/>
		<path fill="#5EBF88" d="M51.61,37.553c4.537,0,4.537-7.097,0-7.097C47.066,30.456,47.066,37.553,51.61,37.553z"/>
		<path fill="#5EBF88" d="M36.469,19.454c-4.54,0-4.54,7.098,0,7.098S41.009,19.454,36.469,19.454z"/>
		<path fill="#5EBF88" d="M48.791,20.162c-4.541,0-4.541,7.099,0,7.099C53.33,27.261,53.33,20.162,48.791,20.162z"/>
		<path fill="#5EBF88" d="M23.443,26.905c4.541,0,4.541-7.098,0-7.098C18.903,19.808,18.903,26.905,23.443,26.905z"/>
		<path fill="#5EBF88" d="M11.474,43.941c4.54,0,4.54-7.098,0-7.098C6.933,36.843,6.933,43.941,11.474,43.941z"/>
		<path fill="#5EBF88" d="M14.29,25.132c-4.54,0-4.54,7.098,0,7.098C18.83,32.229,18.83,25.132,14.29,25.132z"/>
		<path fill="#5EBF88" d="M38.582,80.495c4.54,0,4.54-7.099,0-7.099C34.041,73.397,34.041,80.495,38.582,80.495z"/>
		<path fill="#5EBF88" d="M26.259,83.333c4.54,0,4.54-7.098,0-7.098C21.718,76.235,21.718,83.333,26.259,83.333z"/>
		<path fill="#5EBF88" d="M19.57,75.524c4.541,0,4.541-7.097,0-7.097C15.03,68.428,15.03,75.524,19.57,75.524z"/>
		<path fill="#5EBF88" d="M11.474,68.782c4.54,0,4.54-7.098,0-7.098C6.933,61.685,6.933,68.782,11.474,68.782z"/>
		<path fill="#5EBF88" d="M61.112,35.779c4.54,0,4.54-7.099,0-7.099S56.572,35.779,61.112,35.779z"/>
		<path fill="#5EBF88" d="M7.249,54.587c4.54,0,4.54-7.098,0-7.098C2.708,47.489,2.708,54.587,7.249,54.587z"/>
		<path fill="#5EBF88" d="M58.295,19.454c-4.539,0-4.539,7.098,0,7.098C62.836,26.551,62.836,19.454,58.295,19.454z"/>
		<path fill="#5EBF88" d="M42.806,19.454c4.54,0,4.54-7.1,0-7.1C38.265,12.354,38.265,19.454,42.806,19.454z"/>
		<path fill="#5EBF88" d="M70.618,22.647c-4.54,0-4.54,7.098,0,7.098C75.158,29.744,75.158,22.647,70.618,22.647z"/>
		<path fill="#5EBF88" d="M68.857,39.327c4.541,0,4.541-7.098,0-7.098C64.317,32.229,64.317,39.327,68.857,39.327z"/>
		<path fill="#5EBF88" d="M79.771,36.488c4.54,0,4.54-7.098,0-7.098C75.231,29.39,75.231,36.488,79.771,36.488z"/>
		<path fill="#5EBF88" d="M89.277,50.329c4.539,0,4.539-7.098,0-7.098C84.736,43.231,84.736,50.329,89.277,50.329z"/>
		<path fill="#5EBF88" d="M86.812,59.556c4.539,0,4.539-7.098,0-7.098C82.271,52.459,82.271,59.556,86.812,59.556z"/>
		<path fill="#5EBF88" d="M83.291,61.686c-4.54,0-4.54,7.099,0,7.099C87.83,68.782,87.83,61.686,83.291,61.686z"/>
		<path fill="#5EBF88" d="M94.204,61.686c-4.539,0-4.539,7.099,0,7.099C98.747,68.782,98.747,61.686,94.204,61.686z"/>
		<path fill="#5EBF88" d="M95.498,51.039c-4.541,0-4.541,7.098,0,7.098S100.039,51.039,95.498,51.039z"/>
		<path fill="#5EBF88" d="M88.687,79.075c4.541,0,4.541-7.099,0-7.099C84.147,71.977,84.148,79.075,88.687,79.075z"/>
		<path fill="#5EBF88" d="M79.886,86.883c4.541,0,4.541-7.099,0-7.099C75.346,79.785,75.346,86.883,79.886,86.883z"/>
		<path fill="#5EBF88" d="M89.979,38.972c4.541,0,4.541-7.098,0-7.098C85.439,31.874,85.439,38.972,89.979,38.972z"/>
		<path fill="#5EBF88" d="M79.419,18.388c-4.541,0-4.541,7.098,0,7.098S83.96,18.388,79.419,18.388z"/>
		<path fill="#5EBF88" d="M68.153,12c-4.541,0-4.541,7.098,0,7.098C72.693,19.098,72.693,12,68.153,12z"/>
		<path fill="#5EBF88" d="M56.184,8.452c-4.545,0-4.545,7.098,0,7.098C60.723,15.549,60.723,8.452,56.184,8.452z"/>
		<path fill="#5EBF88" d="M30.132,9.871c-4.54,0-4.54,7.098,0,7.098C34.672,16.969,34.672,9.871,30.132,9.871z"/>
		<path fill="#5EBF88" d="M47.564,3.784c-4.54,0-4.54,7.098,0,7.098C52.104,10.882,52.104,3.784,47.564,3.784z"/>
		<path fill="#5EBF88" d="M89.979,27.971c4.541,0,4.541-7.098,0-7.098C85.439,20.873,85.439,27.971,89.979,27.971z"/>
	</g>
</g>
</svg>
