<?xml version="1.0" encoding="utf-8"?>
<!-- Generator: Adobe Illustrator 16.0.0, SVG Export Plug-In . SVG Version: 6.00 Build 0)  -->
<!DOCTYPE svg PUBLIC "-//W3C//DTD SVG 1.1//EN" "http://www.w3.org/Graphics/SVG/1.1/DTD/svg11.dtd">
<svg version="1.1" id="Layer_1" xmlns="http://www.w3.org/2000/svg" xmlns:xlink="http://www.w3.org/1999/xlink" x="0px" y="0px"
	 width="100px" height="100px" viewBox="0 0 100 100" enable-background="new 0 0 100 100" xml:space="preserve">
<path fill="#5EBF88" d="M94.422,71.474c-2.998-2.993-6.985-4.641-11.229-4.641c-2.205,0-4.342,0.453-6.303,1.304
	c-0.22-0.316-0.459-0.613-0.735-0.9L56.333,47.422l22.854-22.842c0.346,0.056,0.704,0.099,1.052,0.099l0,0
	c1.694,0,3.321-0.703,4.586-1.97l4.691-4.692c0.099-0.1,0.424-0.458,0.596-1.004c0.251-0.831,0.019-1.683-0.645-2.346l-5.138-5.145
	C83.7,8.899,83.052,8.77,82.624,8.77c-0.938,0-1.564,0.583-1.682,0.7l-4.679,4.677c-1.614,1.613-2.242,3.709-1.884,5.651
	L51.543,42.635L33.532,24.631c0.826-1.937,1.259-4.031,1.259-6.199c0-4.236-1.651-8.223-4.65-11.22
	c-2.998-3.001-6.985-4.649-11.222-4.649c-1.41,0-2.82,0.19-4.186,0.558c-0.598,0.164-1.083,0.658-1.24,1.252
	c-0.162,0.61,0.018,1.239,0.499,1.717c0,0,5.595,5.638,7.468,7.511c0.198,0.196,0.195,0.663,0.167,0.831l-0.018,0.127
	c-0.205,2.203-0.604,4.88-0.918,5.658c-0.778,0.318-3.501,0.728-5.741,0.929l-0.091,0.005c-0.02,0.003-0.051,0.008-0.092,0.008
	c-0.225,0-0.562-0.065-0.861-0.369c-1.952-1.945-7.33-7.284-7.33-7.284c-0.479-0.482-0.975-0.582-1.307-0.582
	c-0.769,0-1.454,0.557-1.672,1.35c-1.479,5.478,0.088,11.367,4.101,15.376c2.992,3,6.976,4.649,11.219,4.649
	c2.166,0,4.265-0.432,6.198-1.256l18.008,18.006l-9.894,9.9c-0.839-0.403-1.765-0.622-2.723-0.622c-1.677,0-3.254,0.648-4.433,1.827
	L23.832,64.4c-0.007,0.011-0.01,0.015-0.013,0.017c-0.127-0.002-0.249-0.02-0.373-0.02c-1.679,0-3.254,0.655-4.431,1.83L6.592,78.65
	c-2.442,2.438-2.442,6.419,0,8.867l4.856,4.845c1.18,1.191,2.753,1.833,4.433,1.833c1.676,0,3.251-0.646,4.429-1.833l12.42-12.407
	c1.321-1.327,1.921-3.086,1.815-4.812c0.007-0.002,0.012-0.012,0.014-0.014l2.242-2.243c1.93-1.928,2.331-4.809,1.206-7.145
	l9.9-9.902l19.826,19.818c0.272,0.278,0.584,0.526,0.895,0.746c-2.503,5.792-1.38,12.786,3.342,17.517
	c2.997,2.993,6.978,4.643,11.218,4.643l0,0c1.419,0,2.835-0.187,4.188-0.556c0.604-0.167,1.086-0.652,1.247-1.247
	c0.156-0.616-0.025-1.242-0.503-1.714c0,0-5.598-5.65-7.466-7.516c-0.197-0.196-0.197-0.666-0.168-0.832l0.013-0.12
	c0.208-2.208,0.614-4.884,0.918-5.664c0.785-0.321,3.497-0.723,5.734-0.921l0.099-0.023c0.022,0,0.054-0.001,0.096-0.001
	c0.225,0,0.559,0.067,0.854,0.377c1.96,1.941,7.329,7.279,7.329,7.279c0.482,0.48,0.989,0.581,1.312,0.581
	c0.769,0,1.451-0.553,1.662-1.346C99.995,81.373,98.425,75.483,94.422,71.474z"/>
</svg>
